<?xml version="1.0" encoding="UTF-8"?>
<svg version="1.1" xmlns="http://www.w3.org/2000/svg" width="500" height="500">
<path d="M0 0 C5.46819233 4.24016608 8.66363635 9.89797547 9.96875 16.6796875 C10.78354634 27.28539726 9.52167519 34.90618406 3.96875 43.9296875 C-1.00725049 49.20726377 -7.75416299 52.26921733 -14.8671875 53.16015625 C-25.41787224 53.38127839 -32.48101545 51.92189864 -40.26953125 44.71484375 C-46.12546183 37.95001042 -47.39040052 29.56863424 -47.31640625 20.921875 C-46.70419146 13.96107673 -44.2563956 6.4923216 -39.03125 1.6796875 C-26.59109469 -6.78710717 -13.15081012 -8.54802658 0 0 Z M-34.46875 11.8046875 C-37.46039212 17.94823827 -37.82643681 24.98549734 -35.90625 31.4921875 C-33.99940023 36.32865193 -31.52755618 40.46707646 -26.69921875 42.8125 C-21.47577764 44.51030955 -15.87092824 44.73631196 -10.6796875 42.8046875 C-5.25267867 39.71515439 -2.24196176 35.76992994 -0.453125 29.7265625 C1.0649729 22.36097641 -0.06082994 16.07861692 -4.03125 9.6796875 C-8.31642648 5.50164043 -12.28669498 3.38776955 -18.28125 3.2421875 C-25.7137135 3.40095842 -29.95426803 6.01689011 -34.46875 11.8046875 Z " fill="#E8E8E8" transform="translate(399.03125,231.3203125)"/>
<path d="M0 0 C3.3 0 6.6 0 10 0 C10.01401855 1.67171265 10.01401855 1.67171265 10.02832031 3.37719727 C10.0683711 7.53547262 10.13417087 11.69301981 10.20751953 15.85083008 C10.23564201 17.64598189 10.25689975 19.44125552 10.27099609 21.23657227 C10.29254734 23.826314 10.33925723 26.41460457 10.390625 29.00390625 C10.39185364 29.79898087 10.39308228 30.59405548 10.39434814 31.41322327 C10.54000257 37.0289897 11.80714975 40.35735229 15 45 C19.29836301 48.19080935 24.89911325 47.47820813 30 47 C34.66672736 45.21274271 36.60591363 42.31241696 39 38 C39.57538522 35.03037193 39.60473999 32.12043333 39.609375 29.1015625 C39.62591125 28.26660248 39.64244751 27.43164246 39.65948486 26.57138062 C39.70780345 23.92251105 39.72929925 21.27421488 39.75 18.625 C39.77817328 16.82158599 39.80810261 15.0181985 39.83984375 13.21484375 C39.91355772 8.80994308 39.96323057 4.4053577 40 0 C43.63 0 47.26 0 51 0 C51 18.48 51 36.96 51 56 C47.37 56 43.74 56 40 56 C39.67 54.35 39.34 52.7 39 51 C38.278125 51.61875 37.55625 52.2375 36.8125 52.875 C30.34878633 57.75869477 23.85931661 57.75167798 16 57 C9.8042672 55.32574858 5.4670984 51.31106474 2 46 C-0.49200525 41.25604506 -0.25717837 36.76321111 -0.1953125 31.54296875 C-0.1924826 30.64000565 -0.18965271 29.73704254 -0.18673706 28.80671692 C-0.17557607 25.93350766 -0.15047897 23.06061445 -0.125 20.1875 C-0.11496493 18.23503056 -0.10584 16.28255621 -0.09765625 14.33007812 C-0.07565008 9.55326434 -0.04114831 4.77668569 0 0 Z " fill="#E2E2E2" transform="translate(124,227)"/>
<path d="M0 0 C5.727457 3.49055319 9.30462489 7.9117948 11.08456421 14.38179016 C11.8406833 18.12331047 11.74336575 21.84931563 11.6953125 25.65234375 C11.6924826 26.50808487 11.68965271 27.36382599 11.68673706 28.24549866 C11.67561935 30.95547991 11.65053082 33.66512009 11.625 36.375 C11.61495931 38.22200041 11.60583537 40.06900604 11.59765625 41.91601562 C11.57570763 46.42330677 11.54123654 50.93034573 11.5 55.4375 C8.2 55.4375 4.9 55.4375 1.5 55.4375 C1.48541748 54.34808105 1.47083496 53.25866211 1.45581055 52.13623047 C1.39763928 48.07682215 1.32040818 44.01795763 1.23754883 39.95898438 C1.2043878 38.20549373 1.17632858 36.45189862 1.15356445 34.69824219 C1.1198553 32.17077302 1.06753308 29.64425362 1.01171875 27.1171875 C1.00532883 26.33882538 0.9989389 25.56046326 0.99235535 24.7585144 C0.8428389 19.16650027 -0.34218499 15.0448598 -4 10.625 C-8.26748194 7.2465768 -14.37808401 7.93923063 -19.5 8.4375 C-23.95279491 10.26632648 -25.13091068 11.62246498 -27.11328125 16 C-29.44141308 23.39677757 -29.0768775 31.31611315 -29.1875 39 C-29.22072761 40.5970323 -29.25522216 42.19403877 -29.29101562 43.79101562 C-29.37529493 47.67303324 -29.44239423 51.55499872 -29.5 55.4375 C-32.8 55.4375 -36.1 55.4375 -39.5 55.4375 C-39.5 36.9575 -39.5 18.4775 -39.5 -0.5625 C-36.2 -0.5625 -32.9 -0.5625 -29.5 -0.5625 C-29.17 1.0875 -28.84 2.7375 -28.5 4.4375 C-28.02949219 4.08816406 -27.55898437 3.73882812 -27.07421875 3.37890625 C-26.45160156 2.92386719 -25.82898438 2.46882812 -25.1875 2 C-24.57261719 1.54753906 -23.95773438 1.09507812 -23.32421875 0.62890625 C-17.19211671 -3.37599979 -6.52540633 -2.96494191 0 0 Z " fill="#EAEAEA" transform="translate(266.5,227.5625)"/>
<path d="M0 0 C13.53 0 27.06 0 41 0 C41 2.64 41 5.28 41 8 C30.77 8 20.54 8 10 8 C10 15.59 10 23.18 10 31 C18.25 31 26.5 31 35 31 C35 33.64 35 36.28 35 39 C31.20873402 39.19628414 27.41697828 39.38053896 23.625 39.5625 C22.54476562 39.61857422 21.46453125 39.67464844 20.3515625 39.73242188 C19.3203125 39.78076172 18.2890625 39.82910156 17.2265625 39.87890625 C16.27346191 39.9260376 15.32036133 39.97316895 14.33837891 40.02172852 C12 40 12 40 10 39 C10 49.56 10 60.12 10 71 C6.7 71 3.4 71 0 71 C0 47.57 0 24.14 0 0 Z " fill="#EEEEEE" transform="translate(73,212)"/>
<path d="M0 0 C0 3.3 0 6.6 0 10 C-1.546875 10.268125 -3.09375 10.53625 -4.6875 10.8125 C-8.65302754 11.62018878 -11.84169303 12.3351785 -15 15 C-17.32392649 19.37478388 -17.34267023 23.73946336 -17.4140625 28.58203125 C-17.43342865 29.39621017 -17.4527948 30.2103891 -17.4727478 31.04924011 C-17.53228752 33.63688852 -17.57882583 36.22458203 -17.625 38.8125 C-17.6632034 40.57228449 -17.7022565 42.33205074 -17.7421875 44.09179688 C-17.83796782 48.39438234 -17.92209285 52.6970553 -18 57 C-21.63 57 -25.26 57 -29 57 C-29 38.52 -29 20.04 -29 1 C-25.37 1 -21.74 1 -18 1 C-17.67 2.65 -17.34 4.3 -17 6 C-16.278125 5.38125 -15.55625 4.7625 -14.8125 4.125 C-9.81888643 0.35204753 -6.24139404 -0.24476055 0 0 Z " fill="#DCDCDC" transform="translate(346,226)"/>
<path d="M0 0 C0 3.3 0 6.6 0 10 C-1.22976562 10.22042969 -1.22976562 10.22042969 -2.484375 10.4453125 C-9.34717017 11.74601815 -9.34717017 11.74601815 -14.6875 15.9375 C-16.83740449 20.95394381 -17.19092069 25.39901247 -17.31640625 30.828125 C-17.33718735 31.57713074 -17.35796844 32.32613647 -17.37937927 33.09783936 C-17.44457088 35.48180288 -17.50361783 37.86587312 -17.5625 40.25 C-17.60571416 41.86980254 -17.64932937 43.48959443 -17.69335938 45.109375 C-17.80022096 49.07280832 -17.90157333 53.0363486 -18 57 C-21.3 57 -24.6 57 -28 57 C-28 38.52 -28 20.04 -28 1 C-24.7 1 -21.4 1 -18 1 C-17.67 2.98 -17.34 4.96 -17 7 C-16.52949219 6.57847656 -16.05898437 6.15695313 -15.57421875 5.72265625 C-14.95160156 5.17480469 -14.32898438 4.62695312 -13.6875 4.0625 C-13.07261719 3.51722656 -12.45773438 2.97195312 -11.82421875 2.41015625 C-8.10665669 -0.46359086 -4.5149328 -0.08518741 0 0 Z " fill="#EBEBEB" transform="translate(217,226)"/>
<path d="M0 0 C3.63 0 7.26 0 11 0 C11 18.48 11 36.96 11 56 C7.37 56 3.74 56 0 56 C0 37.52 0 19.04 0 0 Z " fill="#D8D8D8" transform="translate(292,227)"/>
<path d="M0 0 C2.1484375 0.0546875 2.1484375 0.0546875 4.0625 0.4375 C6.125 2.625 6.125 2.625 7.0625 5.4375 C6.9268141 8.28690381 6.43177163 9.87387488 4.875 12.25 C2.10042509 14.06782494 0.29958907 13.96600434 -2.9375 13.4375 C-5.375 11.3125 -5.375 11.3125 -6.9375 8.4375 C-6.71569671 2.78151602 -5.86666813 0.65185201 0 0 Z " fill="#DBDBDB" transform="translate(423.9375,270.5625)"/>
<path d="M0 0 C3.375 0.9375 3.375 0.9375 5.375 3.9375 C5.8125 6.875 5.8125 6.875 5.375 9.9375 C3.25 12.4375 3.25 12.4375 0.375 13.9375 C-3.19695286 13.23711709 -5.04784442 12.51465558 -7.625 9.9375 C-8.0917512 6.35907414 -8.02728636 4.56506672 -6.0625 1.5 C-3.625 -0.0625 -3.625 -0.0625 0 0 Z " fill="#E9E9E9" transform="translate(298.625,205.0625)"/>
<path d="M0 0 C-0.598125 0.268125 -1.19625 0.53625 -1.8125 0.8125 C-4.06604393 2.03585242 -5.42858036 2.97960332 -7 5 C-7.72197162 7.60611077 -7.72197162 7.60611077 -8 10 C-8.33 10 -8.66 10 -9 10 C-9.32523926 6.42236811 -9.42956587 4.60457419 -7.3125 1.625 C-4.61209763 -0.27258004 -3.22939919 -0.35882213 0 0 Z " fill="#929292" transform="translate(300,205)"/>
<path d="M0 0 C0.66 0.33 1.32 0.66 2 1 C-0.31 3.31 -2.62 5.62 -5 8 C-5.66 7.67 -6.32 7.34 -7 7 C-4.66666667 4.66666667 -2.33333333 2.33333333 0 0 Z " fill="#B6B6B6" transform="translate(364,230)"/>
</svg>
